<?xml version="1.0" encoding="utf-8"?>
<!-- Generator: Adobe Illustrator 21.0.0, SVG Export Plug-In . SVG Version: 6.00 Build 0)  -->
<svg version="1.1" id="Camada_1" xmlns="http://www.w3.org/2000/svg" xmlns:xlink="http://www.w3.org/1999/xlink" x="0px" y="0px"
	 viewBox="0 0 1063 1043" style="enable-background:new 0 0 1063 1043;" xml:space="preserve">
<style type="text/css">
	.st0{clip-path:url(#SVGID_2_);}
	.st1{fill:#843DFF;}
	.st2{opacity:0.33;fill:#843DFF;enable-background:new    ;}
	.st3{opacity:0.33;fill:#3D4AFF;enable-background:new    ;}
	.st4{fill:none;}
</style>
<g>
	<defs>
		<rect id="SVGID_1_" width="1063" height="1043"/>
	</defs>
	<clipPath id="SVGID_2_">
		<use xlink:href="#SVGID_1_"  style="overflow:visible;"/>
	</clipPath>
	<g id="bg-front" class="st0">
		<g id="Group_4000" transform="translate(-141 108)">
			<g id="Group_3991" transform="translate(0 48)">
				<g id="Group_3989" transform="translate(-780.656 -112.273)">
					<path id="Path_4424" class="st1" d="M1689.4,162.3c37.8,23.9,246.3,165.7,142.8,332.6s-187.5,391.6-257.3,372.6
						s-328.4,14.3-395.7-125.3s-149.4-332.5-100.2-431.5c49.2-99.1,158.3-212.5,315.8-206.1C1552.3,111,1651.6,138.4,1689.4,162.3z"
						/>
					<path id="Path_4423" class="st2" d="M1586.8,2.4c55.9,12.8,368.6,95.2,320.3,339.1c-48.3,243.9-47.2,548.9-139,555.5
						c-91.8,6.6-385.4,155.4-528.6,16.2S911.4,577,925.4,437.4s93.1-321.6,283.8-380.3S1530.9-10.4,1586.8,2.4z"/>
					<path id="Path_4425" class="st3" d="M1918,278.1c25.2,51.5,158.1,346.2-61.7,462.2c-219.8,116.1-456,308.9-519,241.8
						S974,780.7,992,581.8s54.6-466.5,171.8-543.5c117.2-77,324.9-120.4,490.5-9.2S1892.7,226.6,1918,278.1z"/>
				</g>
			</g>
			<path id="Path_4411" class="st4" d="M1374,78.5H-7.5V-2H1374V78.5z"/>
		</g>
	</g>
</g>
<image style="overflow:visible;" width="284" height="178" xlink:href="front-test-titulo.png"  transform="matrix(1.3908 0 0 1.3908 334 236)">
</image>
</svg>
